<svg xmlns="http://www.w3.org/2000/svg" viewBox="0 0 98 96" aria-hidden="true">
  <path
    fill="#24292f"
    fill-rule="evenodd"
    clip-rule="evenodd"
    d="M48.854 0C21.839 0 0 22 0 49.217c0 21.756 13.993 40.172 33.405 46.69 2.427.49 3.316-1.059 3.316-2.362 0-1.141-.08-5.052-.08-9.127-13.59 2.934-16.436-2.785-17.419-5.34-.581-1.475-3.099-5.885-5.285-7.075-1.798-.934-4.362-3.242-.055-3.302 4.063-.046 6.96 3.737 7.923 5.301 4.637 7.856 12.037 5.644 14.985 4.291.465-3.342 1.787-5.644 3.25-6.938-10.452-.1-21.419-5.217-21.419-23.243 0-5.134 1.831-9.334 4.866-12.618-4.9-.582-9.963-2.45-9.963-12.244 0-2.703.963-4.908 2.546-6.637-1.027-.254-5.366-2.307-1.027-10.746 0 0 2.073-.667 6.787 2.422a23.38 23.38 0 0 1 6.165-.827c2.093.01 4.204.282 6.165.827 4.713-3.089 6.787-2.422 6.787-2.422 4.34 8.439 0 10.492-1.027 10.746 1.582 1.729 2.546 3.934 2.546 6.637 0 9.809-5.268 11.655-10.747 12.744 1.006.865 1.874 2.558 1.874 5.177 0 3.742-.034 6.749-.034 7.673 0 1.454.889 2.868 3.381 2.383C84.075 89.357 98 70.809 98 49.217 98 22 76.245 0 48.854 0z"
  />
</svg>
